<svg xmlns="http://www.w3.org/2000/svg" xmlns:xlink="http://www.w3.org/1999/xlink" version="1.1" x="0px" y="0px" viewBox="0 0 100 125" enable-background="new 0 0 100 100" xml:space="preserve"><g><path d="M62,54H52V40.167c0-1.104-0.896-2-2-2s-2,0.896-2,2V55.5c0,0.086,0.015,0.167,0.025,0.25C48.015,55.833,48,55.914,48,56   c0,1.104,0.896,2,2,2h12c1.104,0,2-0.896,2-2S63.104,54,62,54z"/><path d="M70.223,27.778l1.132-1.976l3.471,1.988c0.313,0.18,0.655,0.265,0.992,0.265c0.694,0,1.368-0.361,1.737-1.006   c0.549-0.958,0.217-2.181-0.741-2.729l-10.412-5.965c-0.96-0.55-2.181-0.217-2.729,0.741c-0.549,0.958-0.217,2.181,0.741,2.729   l3.471,1.988l-1.027,1.793c-3.776-2.138-7.994-3.578-12.481-4.152C55.974,20.171,57,18.204,57,16c0-3.86-3.14-7-7-7s-7,3.14-7,7   c0,2.204,1.026,4.171,2.624,5.455C28.753,23.612,15.667,38.052,15.667,55.5c0,18.932,15.402,34.333,34.333,34.333   S84.333,74.432,84.333,55.5C84.333,44.125,78.769,34.029,70.223,27.778z M50,13c1.654,0,3,1.346,3,3s-1.346,3-3,3s-3-1.346-3-3   S48.346,13,50,13z M50,85.833c-16.726,0-30.333-13.607-30.333-30.333S33.274,25.167,50,25.167S80.333,38.774,80.333,55.5   S66.726,85.833,50,85.833z"/><path d="M50,29.833c-14.152,0-25.667,11.514-25.667,25.667S35.848,81.167,50,81.167S75.667,69.652,75.667,55.5   S64.152,29.833,50,29.833z M50,79.167c-13.05,0-23.667-10.617-23.667-23.667S36.95,31.833,50,31.833S73.667,42.45,73.667,55.5   S63.05,79.167,50,79.167z"/></g><text x="0" y="115" fill="#000000" font-size="5px" font-weight="bold"</svg>