 <svg width="40" v height="40" viewBox="0 0 40 40" fill="none">
    <path
      d="M7.41406 20.2693C7.41406 17.218 7.41406 15.6924 8.10633 14.4277C8.7986 13.163 10.0633 12.3781 12.5928 10.8082L15.2594 9.15322C17.9332 7.49378 19.2701 6.66406 20.7474 6.66406C22.2246 6.66406 23.5615 7.49378 26.2354 9.15322L28.902 10.8082C31.4315 12.3781 32.6962 13.163 33.3885 14.4277C34.0807 15.6924 34.0807 17.218 34.0807 20.2693V22.2973C34.0807 27.4985 34.0807 30.0991 32.5186 31.7149C30.9565 33.3307 28.4424 33.3307 23.4141 33.3307H18.0807C13.0524 33.3307 10.5383 33.3307 8.97616 31.7149C7.41406 30.0991 7.41406 27.4985 7.41406 22.2973V20.2693Z"
      fill="#0F172A"
      opacity="1"
    />
    <path
      d="M24.75 28H16.75"
      stroke="white"
      stroke-width="1.5"
      stroke-linecap="round"
    />
  </svg>