<svg width="40" height="40" viewBox="0 0 40 40" fill="none" >
      <path
        clip-rule="evenodd" 
        fill-rule="evenodd"
        d="M23.2884 6.86705C22.7946 6.66406 22.1686 6.66406 20.9167 6.66406C19.6647 6.66406 19.0387 6.66406 18.5449 6.86705C17.8865 7.1377 17.3635 7.65683 17.0907 8.31024C16.9663 8.60852 16.9175 8.9554 16.8985 9.46138C16.8704 10.205 16.4862 10.8933 15.8369 11.2653C15.1876 11.6373 14.3948 11.6234 13.732 11.2757C13.2809 11.0391 12.9538 10.9076 12.6313 10.8654C11.9248 10.7731 11.2102 10.9631 10.6449 11.3937C10.2208 11.7166 9.90786 12.2546 9.28187 13.3306C8.65588 14.4067 8.34289 14.9447 8.27313 15.4706C8.18011 16.1718 8.37157 16.8809 8.8054 17.442C9.00341 17.6981 9.2817 17.9134 9.7136 18.1828C10.3486 18.5787 10.7571 19.2532 10.7571 19.9974C10.757 20.7416 10.3485 21.416 9.7136 21.8119C9.28162 22.0812 9.0033 22.2965 8.80526 22.5527C8.37144 23.1138 8.17998 23.8229 8.273 24.5241C8.34276 25.05 8.65575 25.588 9.28174 26.6641C9.90772 27.7401 10.2207 28.2781 10.6447 28.601C11.2101 29.0316 11.9247 29.2216 12.6312 29.1293C12.9537 29.0871 13.2807 28.9556 13.7318 28.719C14.3947 28.3713 15.1875 28.3574 15.8368 28.7294C16.4862 29.1015 16.8704 29.7898 16.8985 30.5335C16.9175 31.0394 16.9663 31.3863 17.0907 31.6846C17.3635 32.338 17.8865 32.8571 18.5449 33.1277C19.0387 33.3307 19.6647 33.3307 20.9167 33.3307C22.1686 33.3307 22.7946 33.3307 23.2884 33.1277C23.9468 32.8571 24.4699 32.338 24.7426 31.6846C24.8671 31.3863 24.9158 31.0394 24.9349 30.5334C24.9629 29.7898 25.3471 29.1015 25.9964 28.7294C26.6457 28.3573 27.4385 28.3712 28.1015 28.7189C28.5525 28.9555 28.8795 29.0871 29.202 29.1292C29.9085 29.2215 30.6231 29.0315 31.1885 28.6009C31.6125 28.278 31.9255 27.74 32.5515 26.664C33.1774 25.5879 33.4904 25.0499 33.5602 24.524C33.6532 23.8228 33.4618 23.1137 33.0279 22.5526C32.8299 22.2965 32.5516 22.0812 32.1196 21.8118C31.4847 21.4159 31.0762 20.7414 31.0763 19.9973C31.0763 19.2532 31.4848 18.5788 32.1197 18.183C32.5517 17.9136 32.83 17.6983 33.0281 17.4421C33.4619 16.881 33.6533 16.1719 33.5603 15.4707C33.4906 14.9448 33.1776 14.4068 32.5516 13.3307C31.9256 12.2547 31.6126 11.7167 31.1886 11.3938C30.6232 10.9632 29.9087 10.7732 29.2021 10.8655C28.8796 10.9076 28.5526 11.0392 28.1016 11.2758C27.4386 11.6235 26.6459 11.6374 25.9965 11.2653C25.3471 10.8933 24.9629 10.2049 24.9349 9.46131C24.9158 8.95537 24.8671 8.6085 24.7426 8.31024C24.4699 7.65683 23.9468 7.1377 23.2884 6.86705ZM20.9167 23.9974C23.1426 23.9974 24.9471 22.2065 24.9471 19.9974C24.9471 17.7883 23.1426 15.9974 20.9167 15.9974C18.6907 15.9974 16.8862 17.7883 16.8862 19.9974C16.8862 22.2065 18.6907 23.9974 20.9167 23.9974Z"
        fill="#0F172A"
        opacity="#0F172A"
      />
    </svg>
 